<?xml version="1.0" encoding="utf-8"?>
<!-- Svg Vector Icons : http://www.onlinewebfonts.com/icon -->
<!DOCTYPE svg PUBLIC "-//W3C//DTD SVG 1.1//EN" "http://www.w3.org/Graphics/SVG/1.1/DTD/svg11.dtd">
<svg version="1.1" xmlns="http://www.w3.org/2000/svg" xmlns:xlink="http://www.w3.org/1999/xlink" x="0px" y="0px" viewBox="0 0 1000 1000" enable-background="new 0 0 1000 1000" xml:space="preserve">
<metadata> Svg Vector Icons : http://www.onlinewebfonts.com/icon </metadata>
<g><g transform="translate(0.000000,511.000000) scale(0.100000,-0.100000)"><path style="fill:#e0e2db" d="M1922.2,2922.4c-328-87.6-636-333-773.7-618.4c-77.6-160.3-989-3417.7-1036.6-3710.7c-55.1-323,85.1-718.6,343-979c533.3-535.8,1354.6-453.2,1807.8,185.3c70.1,97.7,212.8,378.1,348,678.6l227.9,515.8l210.3,17.5c245.4,17.5,438.2,85.1,623.5,215.3c135.2,92.7,300.5,280.4,380.6,425.7l42.6,80.1h903.9h903.9l42.6-80.1c80.1-145.2,245.4-333,380.6-425.7c185.3-130.2,378.1-197.8,623.5-215.3l210.3-17.5l230.4-518.3c260.4-588.4,313-678.5,515.8-873.8c475.7-458.2,1176.8-453.2,1637.5,12.5c82.6,85.1,182.8,220.3,220.3,300.5c92.6,190.3,150.2,468.2,132.7,628.5c-27.5,220.3-966.5,3593-1046.6,3760.8c-160.2,328-523.3,585.9-903.9,641c-257.9,37.6-478.2-5-771.2-147.7L6949.9,2687h-1958H3036.4l-192.8,100.2C2523.1,2954.9,2210.1,3000,1922.2,2922.4z M2698.3,2416.6l252.9-130.2h2048.1h2048.1l257.9,132.7c250.4,127.7,262.9,130.2,470.7,130.2c185.3,0,235.3-10,358-70.1c157.7-77.6,297.9-217.8,370.6-375.6c27.5-57.6,260.4-866.3,518.3-1795.3c525.8-1897.9,528.3-1910.4,403.1-2183.3c-77.6-165.2-225.3-318-390.6-398.1c-92.6-47.6-160.3-57.6-318-60.1c-230.4,0-343,47.6-525.8,215.3c-160.3,147.7-227.8,270.4-513.3,918.9c-140.2,318-267.9,588.4-285.4,598.4c-15,10-157.7,20-315.5,20c-250.4,0-302.9,7.5-405.6,57.6c-165.2,82.6-315.5,235.4-388.1,400.6c-115.2,252.9,15,230.4-1284.5,230.4c-1297,0-1169.3,22.5-1282-225.3c-75.1-165.2-230.3-325.5-390.6-405.6c-102.7-50.1-155.2-57.6-405.6-57.6c-157.7,0-300.5-10-315.5-20c-17.5-10-145.2-280.4-285.4-598.4c-285.4-648.5-353-771.2-513.3-918.9c-182.8-167.8-295.4-215.3-525.8-215.3c-160.2,0-225.3,12.5-318,57.6c-255.4,127.7-438.2,393.1-463.2,676c-10,127.7,40.1,328,465.7,1870.4c262.9,951.5,490.8,1760.2,505.8,1797.7c127.7,313,440.7,503.3,793.7,485.8C2422.9,2544.3,2475.5,2529.3,2698.3,2416.6z"/><path style="fill:#e0e2db" d="M7563.3,2198.8c-265.4-135.2-175.3-563.4,117.7-563.4c207.8,0,340.5,140.2,315.5,333C7968.9,2171.2,7743.6,2291.4,7563.3,2198.8z M7788.7,1980.9c40-65.1-10-132.7-100.2-132.7c-57.6,0-75.1,12.5-80.1,57.6C7590.8,2023.5,7726.1,2078.6,7788.7,1980.9z"/><path style="fill:#e0e2db" d="M2099.9,2106.1c-20-20-30-120.2-30-287.9v-257.9h-240.4c-333,0-335.5-2.5-335.5-270.4c0-137.7,10-230.4,30.1-250.4c20-20,120.2-30.1,287.9-30.1h257.9V751.5c0-167.8,10-267.9,30-287.9c20-20,112.7-30,250.4-30c267.9,0,270.4,2.5,270.4,335.5v240.4h257.9c167.8,0,267.9,10,287.9,30.1c20,20,30,112.7,30,250.4c0,267.9-2.5,270.4-335.5,270.4h-240.4v240.4c0,333-2.5,335.5-270.4,335.5C2212.6,2136.2,2120,2126.2,2099.9,2106.1z M2425.4,1655.4l7.5-282.9l282.9-7.5l280.4-7.5v-72.6v-72.6l-280.4-7.5l-282.9-7.5l-7.5-280.4l-7.5-282.9h-72.6h-75.1v257.9c0,167.8-10,267.9-30.1,287.9c-20,20-120.2,30-287.9,30h-257.9v75.1v75.1h257.9c167.8,0,267.9,10,287.9,30.1c20,20,30.1,120.2,30.1,287.9v257.9h75.1h72.6L2425.4,1655.4z"/><path style="fill:#e0e2db" d="M4528.6,1765.6c-22.5-15-30-82.6-25-245.4l7.5-222.8l510.8-7.5c355.6-5,520.8,2.5,543.3,22.5c45.1,37.6,47.6,400.6,5,443.2C5535.2,1790.6,4583.7,1798.1,4528.6,1765.6z M5400,1535.2c0-47.6-17.5-50.1-363.1-50.1c-345.5,0-363,2.5-363,50.1c0,47.6,17.5,50.1,363,50.1C5382.5,1585.3,5400,1582.8,5400,1535.2z"/><path style="fill:#e0e2db" d="M7075.1,1718c-260.4-160.2-150.2-558.3,152.7-558.3c107.7,0,217.8,62.6,262.9,150.2C7633.4,1585.3,7333,1878.3,7075.1,1718z M7302.9,1522.7c65.1-80.1-32.5-202.8-117.7-147.7c-87.6,55.1-57.6,185.3,42.6,185.3C7252.8,1560.3,7285.4,1542.7,7302.9,1522.7z"/><path style="fill:#e0e2db" d="M8024,1720.5c-87.6-47.6-145.2-157.7-145.2-277.9c0-303,433.2-390.6,563.4-117.7c52.6,110.2,47.6,187.8-20,287.9C8324.5,1755.6,8166.7,1800.7,8024,1720.5z M8264.4,1505.2c40-65.1-10-132.7-100.2-132.7c-62.6,0-75.1,10-80.1,72.6C8069.1,1560.3,8201.8,1602.9,8264.4,1505.2z"/><path style="fill:#e0e2db" d="M7548.3,1244.8c-192.8-102.7-187.8-423.1,5-523.3c147.7-77.6,325.5-27.5,410.6,112.7C8119.1,1097.1,7818.7,1392.5,7548.3,1244.8z M7788.7,1029.5c57.6-92.6-90.2-192.8-157.8-110.2c-20,25-27.5,65.1-17.5,105.2c12.5,50.1,30,62.6,82.6,55.1C7731.1,1074.5,7773.6,1052,7788.7,1029.5z"/><path style="fill:#e0e2db" d="M4526.1,974.4c-20-22.5-27.5-112.7-22.5-245.4l7.5-207.8h538.3h538.3l7.5,207.8c5,132.7-2.5,222.9-22.5,245.4c-22.5,27.5-130.2,35-523.3,35C4656.3,1009.4,4548.7,1001.9,4526.1,974.4z M5400,746.5v-62.6h-348c-350.5,0-398.1,12.5-368.1,87.6c10,30,80.1,37.6,365.6,37.6H5400V746.5z"/><path style="fill:#e0e2db" d="M2851.1,431c-122.7-62.6-190.3-145.2-227.9-292.9c-42.6-152.7,2.5-290.4,132.7-420.6c167.8-167.8,408.1-180.3,580.9-30c117.7,102.6,165.3,205.3,165.3,348C3502.1,371,3156.5,581.3,2851.1,431z M3226.7,210.7c67.6-60.1,82.6-90.1,82.6-177.8c0-87.6-15-117.7-82.6-177.8c-105.2-92.6-222.9-97.7-325.5-10c-97.7,82.6-120.2,185.3-67.6,295.4C2908.7,298.4,3091.4,330.9,3226.7,210.7z"/><path style="fill:#e0e2db" d="M6732,431c-57.6-27.5-127.7-82.6-152.8-120.2c-55.1-75.1-107.7-255.4-92.6-305.5c5-20,17.5-65.1,25-105.2c10-37.5,57.6-112.7,105.1-167.8C6887.3-568,7383-372.7,7383,32.9c0,65.1-20,160.2-42.6,210.3C7242.8,451.1,6947.4,541.2,6732,431z M7107.6,210.7c67.6-60.1,82.6-90.1,82.6-177.8c0-87.6-15-117.7-82.6-177.8c-55.1-50.1-107.7-72.6-167.8-72.6c-60.1,0-112.7,22.5-167.8,72.6c-67.6,60.1-82.6,90.1-82.6,177.8c0,87.6,15,117.7,82.6,177.8c55.1,50.1,107.7,72.6,167.8,72.6C7000,283.3,7052.5,260.8,7107.6,210.7z"/></g></g>
</svg> 